<?xml version="1.0" encoding="iso-8859-1"?>
<!-- Uploaded to: SVG Repo, www.svgrepo.com, Generator: SVG Repo Mixer Tools -->
<svg height="800px" width="800px" version="1.1" id="Layer_1" xmlns="http://www.w3.org/2000/svg" xmlns:xlink="http://www.w3.org/1999/xlink" 
	 viewBox="0 0 511.988 511.988" xml:space="preserve">
<path style="fill:#EAAD7A;" d="M0.006,376.898l4.078,9.844c22.89,55.248,65.92,98.277,121.185,121.168l9.844,4.078l95.529-230.635
	L0.006,376.898z"/>
<g>
	<path style="fill:#F4BE8E;" d="M28.13,388.336c20.031,42.092,53.452,75.498,95.544,95.543l67.561-163.105L28.13,388.336z"/>
	<path style="fill:#F4BE8E;" d="M369.567,26.953c-108.802-45.061-233.549,6.609-278.61,115.404
		c-22.531,54.404-20.875,112.778,0,163.2l197.003-81.592l-81.6,196.995l0,0c108.802,45.062,233.534-6.609,278.595-115.402
		C530.016,196.761,478.361,72.03,369.567,26.953z"/>
</g>
<g>
	<path style="fill:#EAAD7A;" d="M494.814,138.279c-22.89-55.249-65.92-98.28-121.169-121.169C346.256,5.766,317.459,0,288.054,0
		c-43.772,0-86.318,12.734-123.036,36.796c-37.609,24.672-66.624,59.765-83.905,101.483c-22.905,55.249-22.905,116.106,0,171.356
		l4.062,9.857l183.074-75.826l-75.826,183.058l9.843,4.078c27.406,11.359,56.187,17.109,85.615,17.109l0,0
		c43.765,0,86.295-12.734,123.013-36.797c37.624-24.67,66.639-59.748,83.92-101.48C517.705,254.385,517.705,193.527,494.814,138.279
		z M475.111,301.478c-15.64,37.748-41.889,69.482-75.904,91.795c-33.249,21.795-71.748,33.311-111.325,33.311
		c-23.069,0-45.71-3.922-67.49-11.656l87.286-210.682l-210.689,87.28c-16.796-47.281-15.516-98.389,3.812-145.091
		c15.656-37.749,41.905-69.483,75.92-91.794c33.233-21.782,71.732-33.297,111.333-33.297c26.593,0,52.64,5.203,77.436,15.468
		c49.983,20.703,88.904,59.64,109.622,109.623C495.814,196.433,495.814,251.494,475.111,301.478z"/>
	<polygon style="fill:#EAAD7A;" points="482.627,154.872 474.471,135.169 307.678,204.245 376.77,37.452 357.053,29.297 
		287.96,196.089 218.86,29.297 199.173,37.452 268.25,204.261 101.456,135.169 93.301,154.872 279.805,232.12 357.053,418.631 
		376.77,410.459 307.678,243.666 474.471,312.76 482.627,293.056 315.834,223.964 	"/>
</g>
<path style="fill:#434A54;" d="M479.924,181.309c0,5.875-4.781,10.656-10.656,10.656c-5.905,0-10.687-4.781-10.687-10.656
	c0-5.891,4.781-10.672,10.687-10.672C475.142,170.637,479.924,175.418,479.924,181.309z"/>
<path style="fill:#8CC153;" d="M373.27,223.964c0,5.89-4.766,10.656-10.655,10.656c-5.891,0-10.656-4.766-10.656-10.656
	c0-5.891,4.766-10.672,10.656-10.672C368.505,213.292,373.27,218.074,373.27,223.964z"/>
<path style="fill:#434A54;" d="M469.252,277.275c0,5.891-4.766,10.672-10.671,10.672c-5.875,0-10.656-4.781-10.656-10.672
	s4.781-10.656,10.656-10.656C464.486,266.619,469.252,271.385,469.252,277.275z"/>
<g>
	<path style="fill:#8CC153;" d="M447.925,330.601c0,5.891-4.78,10.656-10.655,10.656c-5.906,0-10.672-4.766-10.672-10.656
		s4.766-10.672,10.672-10.672C443.144,319.93,447.925,324.711,447.925,330.601z"/>
	<path style="fill:#8CC153;" d="M415.926,373.258c0,5.891-4.766,10.672-10.656,10.672s-10.656-4.781-10.656-10.672
		s4.766-10.672,10.656-10.672S415.926,367.367,415.926,373.258z"/>
</g>
<path style="fill:#434A54;" d="M373.27,277.275c0,5.891-4.766,10.672-10.655,10.672c-5.891,0-10.656-4.781-10.656-10.672
	s4.766-10.656,10.656-10.656C368.505,266.619,373.27,271.385,373.27,277.275z"/>
<g>
	<path style="fill:#8CC153;" d="M297.866,298.603c0,5.891-4.781,10.672-10.672,10.672c-5.89,0-10.671-4.781-10.671-10.672
		s4.781-10.656,10.671-10.656C293.085,287.947,297.866,292.713,297.866,298.603z"/>
	<path style="fill:#8CC153;" d="M341.287,405.256c0,5.891-4.766,10.656-10.672,10.656c-5.875,0-10.656-4.766-10.656-10.656
		c0-5.889,4.781-10.67,10.656-10.67C336.521,394.586,341.287,399.367,341.287,405.256z"/>
</g>
<path style="fill:#434A54;" d="M277.305,405.256c0,5.891-4.781,10.656-10.68,10.656c-5.891,0-10.672-4.766-10.672-10.656
	c0-5.889,4.781-10.67,10.672-10.67C272.523,394.586,277.305,399.367,277.305,405.256z"/>
<path style="fill:#8CC153;" d="M181.314,341.258c0,5.891-4.766,10.672-10.672,10.672c-5.875,0-10.656-4.781-10.656-10.672
	c0-5.875,4.781-10.656,10.656-10.656C176.549,330.601,181.314,335.383,181.314,341.258z"/>
<path style="fill:#434A54;" d="M138.659,447.912c0,5.891-4.766,10.656-10.672,10.656c-5.875,0-10.656-4.766-10.656-10.656
	s4.781-10.672,10.656-10.672C133.893,437.24,138.659,442.021,138.659,447.912z"/>
<g>
	<path style="fill:#8CC153;" d="M74.676,405.256c0,5.891-4.781,10.656-10.672,10.656c-5.89,0-10.671-4.766-10.671-10.656
		c0-5.889,4.781-10.67,10.671-10.67C69.895,394.586,74.676,399.367,74.676,405.256z"/>
	<path style="fill:#8CC153;" d="M458.581,127.982c0,5.891-4.766,10.656-10.656,10.656c-5.874,0-10.655-4.766-10.655-10.656
		s4.781-10.672,10.655-10.672C453.815,117.31,458.581,122.091,458.581,127.982z"/>
</g>
<g>
	<path style="fill:#434A54;" d="M362.615,181.309c0,5.875-4.781,10.656-10.656,10.656c-5.906,0-10.672-4.781-10.672-10.656
		c0-5.891,4.766-10.672,10.672-10.672C357.834,170.637,362.615,175.418,362.615,181.309z"/>
	<path style="fill:#434A54;" d="M394.613,74.655c0,5.891-4.781,10.672-10.672,10.672c-5.89,0-10.671-4.781-10.671-10.672
		c0-5.89,4.781-10.655,10.671-10.655C389.832,63.999,394.613,68.765,394.613,74.655z"/>
	<path style="fill:#434A54;" d="M266.625,32c0,5.89-4.766,10.671-10.672,10.671c-5.875,0-10.656-4.781-10.656-10.671
		c0-5.891,4.781-10.656,10.656-10.656C261.859,21.344,266.625,26.109,266.625,32z"/>
</g>
<g>
	<path style="fill:#8CC153;" d="M309.303,138.638c0,5.891-4.781,10.671-10.671,10.671c-5.891,0-10.672-4.781-10.672-10.671
		s4.781-10.656,10.672-10.656C304.521,127.982,309.303,132.747,309.303,138.638z"/>
	<path style="fill:#8CC153;" d="M234.641,181.309c0,5.875-4.781,10.656-10.672,10.656c-5.89,0-10.671-4.781-10.671-10.656
		c0-5.891,4.781-10.672,10.671-10.672C229.86,170.637,234.641,175.418,234.641,181.309z"/>
</g>
<path style="fill:#434A54;" d="M213.298,234.62c0,5.89-4.766,10.671-10.656,10.671s-10.656-4.781-10.656-10.671
	c0-5.891,4.766-10.656,10.656-10.656S213.298,228.729,213.298,234.62z"/>
<path style="fill:#8CC153;" d="M117.331,181.309c0,5.875-4.781,10.656-10.656,10.656c-5.906,0-10.687-4.781-10.687-10.656
	c0-5.891,4.781-10.672,10.687-10.672C112.55,170.637,117.331,175.418,117.331,181.309z"/>
<g>
	<path style="fill:#434A54;" d="M106.675,245.291c0,5.891-4.781,10.656-10.687,10.656c-5.875,0-10.656-4.766-10.656-10.656
		s4.781-10.671,10.656-10.671C101.894,234.62,106.675,239.401,106.675,245.291z"/>
	<path style="fill:#434A54;" d="M213.298,74.655c0,5.891-4.766,10.672-10.656,10.672s-10.656-4.781-10.656-10.672
		c0-5.89,4.766-10.655,10.656-10.655C208.532,63.999,213.298,68.765,213.298,74.655z"/>
</g>
<g>
	<path style="fill:#8CC153;" d="M330.615,42.671c0,5.891-4.781,10.656-10.656,10.656c-5.891,0-10.656-4.766-10.656-10.656
		S314.069,32,319.959,32C325.834,32,330.615,36.781,330.615,42.671z"/>
	<path style="fill:#8CC153;" d="M149.33,106.654c0,5.891-4.781,10.656-10.671,10.656c-5.891,0-10.672-4.765-10.672-10.656
		c0-5.89,4.781-10.671,10.672-10.671C144.549,95.983,149.33,100.764,149.33,106.654z"/>
</g>
<g>
	<path style="fill:#ED5564;" d="M319.959,85.327c0,17.672-14.328,31.983-31.999,31.983c-17.663,0-32.007-14.312-32.007-31.983
		s14.344-31.999,32.007-31.999C305.631,53.327,319.959,67.655,319.959,85.327z"/>
	<path style="fill:#ED5564;" d="M319.959,362.586c0,17.672-14.328,32-31.999,32c-17.663,0-32.007-14.328-32.007-32
		c0-17.656,14.344-31.984,32.007-31.984C305.631,330.601,319.959,344.93,319.959,362.586z"/>
	<path style="fill:#ED5564;" d="M212.548,103.311c12.5,12.483,12.5,32.749,0,45.233c-12.5,12.5-32.749,12.5-45.249,0
		c-12.5-12.484-12.5-32.75,0-45.233C179.799,90.811,200.048,90.811,212.548,103.311z"/>
	<path style="fill:#ED5564;" d="M408.613,299.369c12.5,12.5,12.5,32.748,0,45.248c-12.5,12.484-32.749,12.484-45.249,0
		c-12.499-12.5-12.499-32.748,0-45.248C375.864,286.869,396.113,286.869,408.613,299.369z"/>
	<path style="fill:#ED5564;" d="M149.33,191.965c17.656,0,31.984,14.328,31.984,32c0,17.655-14.328,31.983-31.984,31.983
		c-17.687,0-31.999-14.328-31.999-31.983C117.331,206.292,131.643,191.965,149.33,191.965z"/>
	<path style="fill:#ED5564;" d="M426.598,191.965c17.671,0,31.983,14.328,31.983,32c0,17.655-14.312,31.983-31.983,31.983
		c-17.672,0-31.984-14.328-31.984-31.983C394.613,206.292,408.926,191.965,426.598,191.965z"/>
	<path style="fill:#ED5564;" d="M93.098,373.664c12.484-12.5,32.749-12.5,45.249,0c12.484,12.484,12.484,32.748,0,45.232
		c-12.5,12.5-32.765,12.5-45.249,0.016C80.614,406.412,80.614,386.148,93.098,373.664z"/>
	<path style="fill:#ED5564;" d="M363.364,103.311c12.5-12.5,32.749-12.5,45.249,0c12.5,12.483,12.5,32.749,0,45.233
		c-12.5,12.5-32.749,12.5-45.249,0C350.881,136.06,350.881,115.794,363.364,103.311z"/>
</g>
</svg>